<svg xmlns="http://www.w3.org/2000/svg" viewBox="0 0 708 200" width="708" height="200">
	<style>
		tspan { white-space:pre }
		.shp0 { fill: #1fa8d7 }
		.shp1 { fill: #ffffff }
		.shp2 { opacity: 0.039;fill: #000000;stroke: #ffffff }
		.shp3 { opacity: 0.078;fill: #000000;stroke: #ffffff }
		.shp4 { opacity: 0;fill: #000000;stroke: #ffffff }
	</style>
	<path id="Layer" class="shp0" d="M0 150L0 50L86.6 0L173.2 50L173.2 150L86.6 200L0 150Z" />
	<path id="Layer" class="shp1" d="M86.6 133.3L57.7 116.7L57.7 83.3L86.6 66.7L115.5 83.3L144.3 66.7L86.6 33.3L28.9 66.7L28.9 133.3L86.6 166.7L144.3 133.3L115.5 116.7L86.6 133.3Z" />
	<path id="Layer" class="shp2" d="M0 50L86.6 100L86.6 0L0 50Z" />
	<path id="Layer" class="shp2" d="M0 150L86.6 200L86.6 100L0 150Z" />
	<path id="Layer" class="shp3" d="M86.6 100L173.2 150L173.2 50L86.6 100Z" />
	<path id="Layer" class="shp4" d="M86.6 100L0 50L0 150L86.6 100Z" />
	<path id="Layer" class="shp3" d="M173.2 150L86.6 100L86.6 200L173.2 150Z" />
	<path id="Layer" class="shp3" d="M173.2 50L86.6 0L86.6 100L173.2 50Z" />
	<g id="Layer">
		<path id="JPM " fill="#333333" d="M199.79 128.75L199.79 113.72Q203.57 117.59 207.83 119.61Q212.14 121.63 216.49 121.63Q221.59 121.63 223.96 119.08Q226.33 116.53 226.33 110.95L226.33 77.82L210.47 77.82L210.47 66.39L239.3 66.39L239.3 110.95Q239.3 122.95 234.24 128.13Q229.23 133.27 217.68 133.27Q213.5 133.27 208.93 132.13Q204.4 130.99 199.79 128.75ZM274.58 77.29L269.27 77.29L269.27 96.54L274.58 96.54Q280.96 96.54 283.51 94.38Q286.1 92.23 286.1 86.91Q286.1 81.59 283.51 79.44Q280.96 77.29 274.58 77.29ZM256.3 132L256.3 66.39L274.1 66.39Q287.68 66.39 293.61 71.22Q299.59 76.06 299.59 86.91Q299.59 97.77 293.61 102.6Q287.68 107.43 274.1 107.43L269.27 107.43L269.27 132L256.3 132ZM307.15 132L307.15 66.39L322.62 66.39L330.44 95.17L338.22 66.39L353.77 66.39L353.77 132L342.61 132L342.61 79.44L335.67 108.14L325.34 108.14L318.31 79.44L318.31 132L307.15 132Z" />
		<path id="SYSTEM " fill="#1d9bc6" d="M401.78 106.63L395.41 104.22Q385.61 100.48 382.14 96.39Q378.67 92.26 378.67 85.32Q378.67 76.4 384.38 71.3Q390.09 66.2 400.07 66.2Q404.6 66.2 409.12 67.26Q413.65 68.27 418.09 70.29L418.09 82.95Q413.91 80 409.61 78.46Q405.3 76.93 401.08 76.93Q396.38 76.93 393.87 78.82Q391.37 80.71 391.37 84.22Q391.37 86.95 393.17 88.75Q395.02 90.5 400.82 92.66L406.4 94.77Q414.31 97.67 418.04 102.46Q421.78 107.25 421.78 114.54Q421.78 124.47 415.89 129.4Q410.05 134.27 398.18 134.27Q393.3 134.27 388.38 133.13Q383.5 131.95 378.93 129.66L378.93 116.26Q384.12 119.95 388.95 121.75Q393.83 123.55 398.58 123.55Q403.37 123.55 406 121.4Q408.64 119.2 408.64 115.29Q408.64 112.35 406.88 110.15Q405.12 107.91 401.78 106.63ZM447.79 107.16L427.54 67.39L441.51 67.39L454.25 93.76L467.04 67.39L481.02 67.39L460.76 107.16L460.76 133L447.79 133L447.79 107.16ZM510.15 106.63L503.78 104.22Q493.98 100.48 490.51 96.39Q487.04 92.26 487.04 85.32Q487.04 76.4 492.75 71.3Q498.46 66.2 508.44 66.2Q512.97 66.2 517.49 67.26Q522.02 68.27 526.46 70.29L526.46 82.95Q522.28 80 517.98 78.46Q513.67 76.93 509.45 76.93Q504.75 76.93 502.24 78.82Q499.74 80.71 499.74 84.22Q499.74 86.95 501.54 88.75Q503.39 90.5 509.19 92.66L514.77 94.77Q522.68 97.67 526.41 102.46Q530.15 107.25 530.15 114.54Q530.15 124.47 524.26 129.4Q518.42 134.27 506.55 134.27Q501.67 134.27 496.75 133.13Q491.87 131.95 487.3 129.66L487.3 116.26Q492.49 119.95 497.32 121.75Q502.2 123.55 506.95 123.55Q511.74 123.55 514.37 121.4Q517.01 119.2 517.01 115.29Q517.01 112.35 515.25 110.15Q513.49 107.91 510.15 106.63ZM569.13 78.73L569.13 133L556.16 133L556.16 78.73L539.51 78.73L539.51 67.39L585.78 67.39L585.78 78.73L569.13 78.73ZM637.99 121.57L637.99 133L597.12 133L597.12 67.39L637.99 67.39L637.99 78.82L610.08 78.82L610.08 92.97L635.35 92.97L635.35 104.39L610.08 104.39L610.08 121.57L637.99 121.57ZM647.7 133L647.7 67.39L663.17 67.39L670.99 96.17L678.77 67.39L694.33 67.39L694.33 133L683.17 133L683.17 80.44L676.22 109.14L665.9 109.14L658.86 80.44L658.86 133L647.7 133Z" />
	</g>
</svg>
